<svg width="2431" height="2430" viewBox="0 0 2431 2430" fill="none" xmlns="http://www.w3.org/2000/svg">
<g clip-path="url(#clip0_4_5)">
<path fill-rule="evenodd" clip-rule="evenodd" d="M1143.85 1245.89C1143.88 1245.59 1143.76 1245.3 1143.54 1245.1L1141.3 1242.4V1242H1148.26L1153.64 1253.8L1158.37 1242H1165V1242.4L1163.08 1244.24C1162.92 1244.37 1162.84 1244.57 1162.87 1244.78V1258.28C1162.84 1258.48 1162.92 1258.69 1163.08 1258.81L1164.95 1260.65V1261.05H1155.54V1260.65L1157.48 1258.77C1157.67 1258.58 1157.67 1258.52 1157.67 1258.23V1247.32L1152.28 1261.01H1151.56L1145.28 1247.32V1256.5C1145.23 1256.88 1145.36 1257.27 1145.63 1257.55L1148.15 1260.6V1261.01H1141V1260.6L1143.52 1257.55C1143.79 1257.27 1143.91 1256.88 1143.85 1256.5V1245.89Z" fill="white"/>
</g>
<path d="M1154.95 1.6991C1150.27 1.91149 1132.64 3.39825 1115.65 4.67261C903.259 20.3898 687.892 98.9755 511.392 225.138C452.984 266.767 406.895 305.847 355.495 357.247C60.0551 652.899 -61.6467 1075.99 30.7447 1486.97C68.5509 1655.61 149.261 1825.31 256.307 1961.67C424.311 2175.98 654.546 2326.99 912.817 2392.41C1017.95 2419.17 1105.25 2430 1215.48 2430C1324.22 2430 1404.3 2420.23 1507.95 2394.95C1656.83 2358.42 1787.67 2298.32 1918.5 2206.77C2043.82 2118.84 2160.42 1995.65 2244.1 1862.91C2352 1691.29 2413.38 1501.84 2428.46 1293.9C2431.65 1250.15 2429.74 1141.83 2425.06 1097.23C2415.72 1008.66 2391.93 891.842 2378.12 867.417C2372.6 857.859 2357.1 845.541 2345.63 841.505C2341.59 840.231 2332.67 839.169 2325.45 839.169C2293.59 839.169 2266.83 865.718 2266.83 896.94C2266.83 904.374 2270.23 922.215 2275.11 941.543C2317.17 1105.09 2320.56 1284.77 2284.67 1448.74C2238.79 1658.8 2136.42 1844 1982.01 1995.87C1910.01 2066.59 1840.55 2118.84 1750.71 2170.24C1541.08 2290.24 1280.47 2335.7 1036.01 2294.92C850.373 2264.12 689.166 2192.76 536.03 2073.6C464.029 2017.53 376.31 1925.14 321.937 1847.83C228.059 1714.44 169.013 1573.84 138.429 1410.51C122.924 1327.25 117.614 1216.81 124.835 1126.96C135.88 990.606 170.075 864.019 228.059 744.016C254.82 688.157 271.387 659.059 303.459 610.845C368.876 511.87 455.533 419.266 551.322 345.777C663.679 259.333 797.062 193.703 931.933 158.446C1004.78 139.33 1062.98 129.773 1136.89 124.463C1404.3 105.347 1664.27 182.234 1876.02 343.441C1891.74 355.335 1908.31 368.291 1912.77 372.327L1920.84 379.336L1917.65 388.256C1901.3 434.133 1913.41 491.267 1947.81 531.197C1965.44 551.587 1997.3 570.703 2024.27 577.075C2042.75 581.535 2074.82 581.535 2093.52 577.075C2140.88 565.818 2185.06 525.25 2199.08 480.223C2214.79 429.885 2205.66 380.185 2173.38 339.83C2137.69 295.228 2076.31 275.263 2019.6 290.13L2007.28 293.316L1989.87 278.873C1919.14 219.615 1833.55 164.818 1743.49 121.277C1597.36 50.5497 1450.6 12.5312 1283.44 2.33628C1251.37 0.424733 1175.55 -5.34462e-05 1154.95 1.6991V1.6991Z" fill="white"/>
<path d="M1029.21 700.476C1006.7 758.671 957.845 886.108 920.251 983.597C882.657 1081.09 805.558 1281.37 748.849 1428.56C692.352 1575.75 645.413 1696.82 644.988 1697.67C644.351 1698.73 704.034 1699.36 777.31 1699.36H910.905L918.764 1677.49C923.224 1665.59 938.942 1623.54 953.597 1584.03L980.358 1512.46H1180.86C1340.58 1512.46 1381.36 1511.82 1380.72 1509.7C1378.6 1503.96 1345.89 1410.51 1328.47 1360.6L1309.78 1307.5L1177.04 1306.44L1044.5 1305.37L1130.73 1067.7C1182.56 924.976 1217.6 831.523 1218.24 833.647C1219.09 835.558 1253.5 933.472 1294.91 1051.14C1336.33 1168.8 1404.72 1362.51 1446.78 1481.66L1523.03 1698.3L1655.98 1698.94C1729.05 1699.15 1788.94 1698.94 1788.94 1698.51C1788.94 1698.09 1771.74 1652.85 1750.5 1598.27C1729.26 1543.47 1683.81 1425.59 1649.4 1336.17C1614.99 1246.75 1576.34 1146.5 1563.38 1113.16C1550.64 1079.81 1528.33 1022.04 1513.89 984.659C1499.45 947.277 1461.86 849.364 1430 766.955C1398.14 684.546 1370.31 612.12 1367.98 605.96L1363.94 594.916H1069.78L1029.21 700.476Z" fill="white"/>
<defs>
<clipPath id="clip0_4_5">
<rect width="24" height="24" fill="white" transform="translate(1141 1239)"/>
</clipPath>
</defs>
</svg>
