<svg width="1024" height="1024" fill="none" xmlns="http://www.w3.org/2000/svg"><path d="M478.503.8c-2.2.2-9.199.8999-15.498 1.3998C317.719 15.2985 181.632 93.691 95.4407 214.179 47.4453 281.173 16.7483 357.165 5.1495 437.657 1.0499 465.755.5499 474.054.5499 512.15s.5 46.396 4.5996 74.493C32.9468 778.724 169.633 940.108 355.015 999.902c33.197 10.698 68.194 17.998 107.99 22.398 15.498 1.7 82.492 1.7 97.99 0 68.693-7.6 126.888-24.597 184.282-53.895 8.799-4.499 10.499-5.699 9.299-6.699-.8-.6-38.296-50.895-83.292-111.689l-81.792-110.489-102.49-151.685c-56.394-83.392-102.79-151.586-103.19-151.586-.399-.1-.799 67.294-.999 149.586-.3 144.086-.4 149.885-2.2 153.285-2.6 4.899-4.6 6.899-8.799 9.099-3.2 1.6-6 1.9-21.098 1.9h-17.299l-4.599-2.9c-3-1.9-5.2-4.399-6.699-7.299l-2.1-4.5.2-200.48.3-200.581 3.099-3.899c1.6-2.1 5-4.8 7.4-6.1 4.099-1.999 5.699-2.199 22.997-2.199 20.398 0 23.798.8 29.098 6.599 1.499 1.6 56.994 85.192 123.388 185.882 66.393 100.69 157.184 238.177 201.78 305.67l80.992 122.688 4.1-2.7c36.296-23.597 74.692-57.194 105.089-92.191 64.694-74.292 106.388-164.884 120.388-261.474 4.1-28.097 4.6-36.397 4.6-74.493s-.5-46.395-4.6-74.493C991.053 245.576 854.367 84.1918 668.985 24.3977c-32.697-10.599-67.494-17.8983-106.49-22.2979C552.896 1.1 486.802 0 478.503.8Zm209.38 309.37c4.799 2.4 8.699 6.999 10.099 11.799.8 2.599 1 58.194.8 183.482l-.3 179.782-31.697-48.595-31.797-48.595V457.355c0-84.491.4-131.987 1-134.287 1.6-5.599 5.099-9.999 9.899-12.598 4.1-2.1 5.599-2.3 21.298-2.3 14.798 0 17.398.2 20.698 2Z" fill="#fff"/><path d="M784.273 945.208c-3.499 2.199-4.599 3.699-1.499 1.999 2.199-1.299 5.799-3.999 5.199-4.099-.3 0-2 1-3.7 2.1Zm-6.899 4.499c-1.8 1.4-1.8 1.5.4.4 1.2-.6 2.2-1.3 2.2-1.5 0-.8-.5-.6-2.6 1.1Zm-4.999 3c-1.8 1.4-1.8 1.5.4.4 1.199-.6 2.199-1.3 2.199-1.5 0-.8-.5-.6-2.599 1.1Zm-5 3c-1.8 1.4-1.8 1.5.4.4 1.2-.6 2.2-1.3 2.2-1.5 0-.8-.5-.6-2.6 1.1Zm-7.599 3.999c-3.8 2-3.6 2.8.2.9 1.7-.9 3-1.8 3-2 0-.7-.1-.6-3.2 1.1Z" fill="#fff"/></svg>