<svg xmlns="http://www.w3.org/2000/svg" fill="none" viewBox="0 0 291 69"><path fill="#fff" d="M0 36.53c.07 17.6 14.4 32.01 32.01 32.01a32.0502 32.0502 0 0 0 32.01-32V32a13.1997 13.1997 0 0 1 8.7824-12.3706A13.2006 13.2006 0 0 1 87.42 23.69h20.7A32.0702 32.0702 0 0 0 77.2 0a32.0498 32.0498 0 0 0-32 32.01v4.52A13.1998 13.1998 0 0 1 32 49.71a13.2 13.2 0 0 1-13.18-13.18 3.7691 3.7691 0 0 0-1.1042-2.6658A3.7689 3.7689 0 0 0 15.05 32.76H3.76A3.7699 3.7699 0 0 0 0 36.53Zm122.49 32.01a32.1398 32.1398 0 0 1-30.89-23.7h20.67a13.1593 13.1593 0 0 0 14.639 4.1369 13.1566 13.1566 0 0 0 6.36-4.8244 13.1616 13.1616 0 0 0 2.401-7.6125V32a32.047 32.047 0 0 1 9.391-22.6163C151.061 3.385 159.195.0106 167.68 0c17.43 0 31.64 14 32 31.33l.1 5.2a13.2036 13.2036 0 0 0 2.436 7.573 13.2035 13.2035 0 0 0 6.346 4.7976 13.2026 13.2026 0 0 0 7.951.2795 13.1984 13.1984 0 0 0 6.667-4.3401h20.7a32.07 32.07 0 0 1-30.91 23.7c-17.61 0-31.94-14.42-32.01-32l-.1-4.7v-.2a13.1992 13.1992 0 0 0-3.994-9.0757 13.2017 13.2017 0 0 0-9.186-3.7343 13.201 13.201 0 0 0-9.314 3.8662A13.201 13.201 0 0 0 154.5 32.01v4.52a32.0505 32.0505 0 0 1-9.387 22.6228A32.0518 32.0518 0 0 1 122.49 68.54ZM247.94 23.7a13.1594 13.1594 0 0 1 14.644-4.1352 13.1556 13.1556 0 0 1 6.359 4.8288 13.1568 13.1568 0 0 1 2.397 7.6164c0 .4951.098.9853.287 1.4427.189.4574.467.873.817 1.2231.35.3501.766.6278 1.223.8172.458.1895.948.287 1.443.287h11.3a3.7696 3.7696 0 0 0 2.659-1.1077 3.77 3.77 0 0 0 1.101-2.6623 32.0505 32.0505 0 0 0-9.387-22.6228A32.0515 32.0515 0 0 0 258.16 0a32.069 32.069 0 0 0-19.471 6.6169A32.073 32.073 0 0 0 227.24 23.7h20.7Z"/></svg>