<svg width="24" height="24" fill="none" xmlns="http://www.w3.org/2000/svg"><g clip-path="url(#a)"><path fill-rule="evenodd" clip-rule="evenodd" d="M2.846 6.887a.9284.9284 0 0 0-.303-.784l-2.24-2.7V3h6.958l5.378 11.795L17.367 3H24v.403L22.084 5.24a.5614.5614 0 0 0-.213.538v13.498c-.034.204.048.411.213.537l1.871 1.837v.403h-9.412v-.403l1.939-1.882c.19-.19.19-.246.19-.537V8.321l-5.389 13.688h-.728L4.28 8.321v9.174c-.052.385.076.774.347 1.052l2.521 3.058v.404H0v-.404l2.521-3.058c.27-.279.39-.67.325-1.052V6.887Z" fill="#fff"/></g><defs><clipPath id="a"><path fill="#fff" d="M0 0h24v24H0z"/></clipPath></defs></svg>
