<svg width="2431" height="2430" fill="none" xmlns="http://www.w3.org/2000/svg"><g clip-path="url(#a)"><path fill-rule="evenodd" clip-rule="evenodd" d="M1143.85 1245.89c.03-.3-.09-.59-.31-.79l-2.24-2.7v-.4h6.96l5.38 11.8 4.73-11.8h6.63v.4l-1.92 1.84c-.16.13-.24.33-.21.54v13.5c-.03.2.05.41.21.53l1.87 1.84v.4h-9.41v-.4l1.94-1.88c.19-.19.19-.25.19-.54v-10.91l-5.39 13.69h-.72l-6.28-13.69v9.18c-.05.38.08.77.35 1.05l2.52 3.05v.41H1141v-.41l2.52-3.05c.27-.28.39-.67.33-1.05v-10.61Z" fill="#fff"/></g><path d="M1154.95 1.6991c-4.68.2124-22.31 1.6991-39.3 2.9735C903.259 20.3898 687.892 98.9755 511.392 225.138c-58.408 41.629-104.497 80.709-155.897 132.109C60.0551 652.899-61.6467 1075.99 30.7447 1486.97c37.8062 168.64 118.5163 338.34 225.5623 474.7 168.004 214.31 398.239 365.32 656.51 430.74 105.133 26.76 192.433 37.59 302.663 37.59 108.74 0 188.82-9.77 292.47-35.05 148.88-36.53 279.72-96.63 410.55-188.18 125.32-87.93 241.92-211.12 325.6-343.86 107.9-171.62 169.28-361.07 184.36-569.01 3.19-43.75 1.28-152.07-3.4-196.67-9.34-88.57-33.13-205.388-46.94-229.813-5.52-9.558-21.02-21.876-32.49-25.912-4.04-1.274-12.96-2.336-20.18-2.336-31.86 0-58.62 26.549-58.62 57.771 0 7.434 3.4 25.275 8.28 44.603 42.06 163.547 45.45 343.227 9.56 507.197-45.88 210.06-148.25 395.26-302.66 547.13-72 70.72-141.46 122.97-231.3 174.37-209.63 120-470.24 165.46-714.7 124.68-185.637-30.8-346.844-102.16-499.98-221.32-72.001-56.07-159.72-148.46-214.093-225.77-93.878-133.39-152.924-273.99-183.508-437.32-15.505-83.26-20.815-193.7-13.594-283.55 11.045-136.354 45.24-262.941 103.224-382.944 26.761-55.859 43.328-84.957 75.4-133.171 65.417-98.975 152.074-191.579 247.863-265.068 112.357-86.444 245.74-152.074 380.611-187.331 72.847-19.116 131.047-28.673 204.957-33.983 267.41-19.116 527.38 57.771 739.13 218.978 15.72 11.894 32.29 24.85 36.75 28.886l8.07 7.009-3.19 8.92c-16.35 45.877-4.24 103.011 30.16 142.941 17.63 20.39 49.49 39.506 76.46 45.878 18.48 4.46 50.55 4.46 69.25 0 47.36-11.257 91.54-51.825 105.56-96.852 15.71-50.338 6.58-100.038-25.7-140.393-35.69-44.602-97.07-64.567-153.78-49.7l-12.32 3.186-17.41-14.443c-70.73-59.258-156.32-114.055-246.38-157.596C1597.36 50.5497 1450.6 12.5312 1283.44 2.3363c-32.07-1.9116-107.89-2.3364-128.49-.6372Z" fill="#fff"/><path d="M1029.21 700.476c-22.51 58.195-71.365 185.632-108.959 283.121-37.594 97.493-114.693 297.773-171.402 444.963-56.497 147.19-103.436 268.26-103.861 269.11-.637 1.06 59.046 1.69 132.322 1.69h133.595l7.859-21.87c4.46-11.9 20.178-53.95 34.833-93.46l26.761-71.57h200.502c159.72 0 200.5-.64 199.86-2.76-2.12-5.74-34.83-99.19-52.25-149.1l-18.69-53.1-132.74-1.06-132.54-1.07 86.23-237.67c51.83-142.724 86.87-236.177 87.51-234.053.85 1.911 35.26 99.825 76.67 217.493 41.42 117.66 109.81 311.37 151.87 430.52l76.25 216.64 132.95.64c73.07.21 132.96 0 132.96-.43 0-.42-17.2-45.66-38.44-100.24-21.24-54.8-66.69-172.68-101.1-262.1-34.41-89.42-73.06-189.67-86.02-223.01-12.74-33.35-35.05-91.12-49.49-128.501-14.44-37.382-52.03-135.295-83.89-217.704-31.86-82.409-59.69-154.835-62.02-160.995l-4.04-11.044h-294.16l-40.57 105.56Z" fill="#fff"/><defs><clipPath id="a"><path fill="#fff" transform="translate(1141 1239)" d="M0 0h24v24H0z"/></clipPath></defs></svg>