<svg width="2025" height="2031" fill="none" xmlns="http://www.w3.org/2000/svg"><path d="M999.526 6.0269 1053.7 107.788c12.19 18.778 25.38 35.4 40.92 50.88 45.57 45.001 88.05 93.03 127.14 143.759 91.8 120.539 153.72 254.402 197.94 399.176 26.52 88.438 40.92 179.159 42 270.896 4.44 274.261-89.58 509.751-279.14 705.471a805.8686 805.8686 0 0 1-99.61 85.14c-18.78 0-27.66-14.4-35.4-27.66a227.9191 227.9191 0 0 1-27.66-79.62c-6.66-33.18-11.04-66.36-8.88-100.62v-15.48c-1.52-3.3-18.082-1525.8998-11.484-1533.7031Z" fill="#599636"/><path d="M999.526 2.6645c-2.221-4.4409-4.441-1.0785-6.662 1.0785 1.079 22.2047-6.661 41.9985-18.779 60.9042-13.322 18.7787-30.959 33.18-48.659 48.6598-98.335 85.139-175.734 187.978-237.717 302.998-82.474 154.798-124.98 320.698-137.034 495.354-5.52 62.997 19.921 285.301 39.778 349.441 54.179 170.27 151.499 312.95 277.558 436.79 30.959 29.82 64.076 57.48 98.335 84.06 9.96 0 11.038-8.88 13.322-15.48 4.367-14.11 7.696-28.53 9.961-43.14l22.201-165.83L999.526 2.6645Z" fill="#6CAC48"/><path d="M1053.7 1830.49c2.23-25.38 14.41-46.44 27.67-67.44-13.33-5.52-23.22-16.5-30.96-28.74-6.68-11.59-12.2-23.81-16.5-36.48-15.48-46.44-18.78-95.16-23.22-142.62v-28.74c-5.52 4.44-6.66 42-6.66 47.58-3.23 50.16-9.884 100.04-19.921 149.28-3.299 19.92-5.519 39.78-17.763 57.48 0 2.22 0 4.44 1.078 7.74 19.921 58.62 25.377 118.32 28.739 179.16v22.21c0 26.51-1.078 20.93 20.937 29.81 8.88 3.3 18.78 4.44 27.66 11.04 6.66 0 7.74-5.52 7.74-9.96l-3.3-36.48v-101.76c-1.08-17.76 2.22-35.4 4.44-52.02l.06-.06Z" fill="#C2BFBF"/></svg>